<?xml version="1.0" encoding="utf-8"?>
<svg version="1.1" xmlns="http://www.w3.org/2000/svg" xmlns:xlink="http://www.w3.org/1999/xlink">

<symbol id="adobe" viewBox="0 0 22.2 22.2">
    <title>Adobe</title> 
    <desc>Adobe Logo</desc>
	<polygon points="13.8,1.2 22.1,20.7 22.1,1.2"/>
	<polygon points="0,1.2 0,20.7 8.1,1.2"/>
	<polygon points="7.4,16.7 11.3,16.7 12.8,20.7 16.2,20.7 11,8.3"/>
</symbol>

<symbol id="facebook" viewBox="0 0 18 18">
    <title>Facebook</title> 
    <desc>Facebook Logo</desc>
    <path d="M10.5,18V9.8h3l0.4-3.2h-3.4v-2c0-0.9,0.3-1.6,1.7-1.6H14V0.1C13.1,0,12.2,0,11.3,0C8.7,0,6.9,1.5,6.9,4.2v2.4
	H4v3.2h3V18H10.5L10.5,18z"/>
</symbol>

<symbol id="instagram" viewBox="0 0 24 24">
    <title>Instagram</title> 
    <desc>Instagram Logo</desc>
    <path d="M12 2.163c3.204 0 3.584.012 4.85.07 3.252.148 4.771 1.691 4.919 4.919.058 1.265.069 1.645.069 4.849 0 3.205-.012 3.584-.069 4.849-.149 3.225-1.664 4.771-4.919 4.919-1.266.058-1.644.07-4.85.07-3.204 0-3.584-.012-4.849-.07-3.26-.149-4.771-1.699-4.919-4.92-.058-1.265-.07-1.644-.07-4.849 0-3.204.013-3.583.07-4.849.149-3.227 1.664-4.771 4.919-4.919 1.266-.057 1.645-.069 4.849-.069zm0-2.163c-3.259 0-3.667.014-4.947.072-4.358.2-6.78 2.618-6.98 6.98-.059 1.281-.073 1.689-.073 4.948 0 3.259.014 3.668.072 4.948.2 4.358 2.618 6.78 6.98 6.98 1.281.058 1.689.072 4.948.072 3.259 0 3.668-.014 4.948-.072 4.354-.2 6.782-2.618 6.979-6.98.059-1.28.073-1.689.073-4.948 0-3.259-.014-3.667-.072-4.947-.196-4.354-2.617-6.78-6.979-6.98-1.281-.059-1.69-.073-4.949-.073zm0 5.838c-3.403 0-6.162 2.759-6.162 6.162s2.759 6.163 6.162 6.163 6.162-2.759 6.162-6.163c0-3.403-2.759-6.162-6.162-6.162zm0 10.162c-2.209 0-4-1.79-4-4 0-2.209 1.791-4 4-4s4 1.791 4 4c0 2.21-1.791 4-4 4zm6.406-11.845c-.796 0-1.441.645-1.441 1.44s.645 1.44 1.441 1.44c.795 0 1.439-.645 1.439-1.44s-.644-1.44-1.439-1.44z"></path>
</symbol>

<symbol id="linkedin" viewBox="0 0 17 17.1">
    <title>LinkedIn</title> 
    <desc>LinkedIn Logo</desc>
    <path d="M3.7,16.3H0.4V5.7h3.3V16.3z M2,4.4L2,4.4C1,4.5,0.1,3.7,0,2.7c0-0.1,0-0.1,0-0.2c0-1,0.8-1.9,1.9-1.8c0,0,0.1,0,0.1,0
	c1-0.1,1.9,0.6,2,1.6c0.1,1-0.6,1.9-1.6,2C2.3,4.4,2.1,4.4,2,4.4z M17,16.3h-3.8v-5.5c0-1.4-0.6-2.4-1.9-2.4c-0.8,0-1.5,0.5-1.8,1.3
	c-0.1,0.3-0.1,0.6-0.1,0.9v5.7H5.8c0,0,0-9.7,0-10.6h3.7v1.7c0.7-1.2,2-1.9,3.3-1.8c2.4,0,4.2,1.5,4.2,4.8V16.3z"/>
</symbol>

<symbol id="twitter" viewBox="0 0 17.2 17.2">
    <title>Twitter</title> 
    <desc>Twitter Logo</desc>
    <path d="M17.2,3.3L17.2,3.3 M11.9,1.6c-2,0-3.5,1.6-3.5,3.5c0,0.3,0,0.5,0.1,0.8C5.6,5.8,3,4.5,1.2,2.3C0.3,3.9,0.7,6,2.3,7
	C1.7,7,1.2,6.8,0.7,6.6c0,0,0,0,0,0c0,1.7,1.2,3.1,2.8,3.5c-0.3,0.1-0.6,0.1-0.9,0.1c-0.2,0-0.4,0-0.7-0.1c0.5,1.4,1.8,2.4,3.3,2.5
	c-1.3,1-2.8,1.5-4.4,1.5c-0.3,0-0.6,0-0.8,0c4.7,3,10.9,1.6,13.9-3c1-1.6,1.6-3.5,1.6-5.4c0-0.2,0-0.3,0-0.5
	c0.7-0.5,1.3-1.1,1.8-1.8c-0.6,0.3-1.3,0.5-2,0.6c0.7-0.4,1.3-1.1,1.6-2c-0.7,0.4-1.5,0.7-2.2,0.9C13.8,2,12.9,1.6,11.9,1.6"/>
</symbol>

<symbol id="youtube" viewBox="0 0 24 23.9">
    <title>YouTube</title> 
    <desc>YouTube Logo</desc>
    <path d="M23.7,7.1c-0.1-0.9-0.4-1.7-1-2.4c-0.6-0.6-1.5-1-2.4-1C17,3.4,12,3.4,12,3.4h0c0,0-5,0-8.4,0.2c-0.9,0-1.8,0.4-2.4,1
	c-0.5,0.7-0.8,1.5-1,2.4C0.1,8.4,0,9.7,0,11v1.8c0,1.3,0.1,2.6,0.2,3.9c0.1,0.9,0.4,1.7,1,2.4c0.7,0.7,1.7,1,2.6,1
	c1.9,0.2,8.2,0.2,8.2,0.2s5,0,8.4-0.2c0.9,0,1.8-0.4,2.4-1c0.5-0.7,0.8-1.5,1-2.4c0.1-1.3,0.2-2.6,0.2-3.9V11
	C24,9.7,23.9,8.4,23.7,7.1z M9.5,15.1V8.3l6.5,3.4L9.5,15.1z"/>
</symbol>

<symbol id="link" viewBox="0 0 22 22">
    <title>Copy</title>
    <desc>Copy to Clipboard</desc>
	<path d="M11,0C4.9,0,0,4.9,0,11s4.9,11,11,11s11-5,11-11S17,0,11,0z M11.9,16.8l-0.8,0.8c-1.9,1.6-4.6,1.5-6.4-0.3
    c-1.5-1.8-1.5-4.3,0-6.1L6.9,9c1.8-1.8,4.6-1.8,6.4,0c0.3,0.3,0.3,1,0,1.3s-1,0.3-1.3,0l0,0c-1-1-2.6-1-3.6,0l0,0l-2.2,2.2
    c-1,1.1-0.9,2.8,0.2,3.7c1,0.9,2.5,0.9,3.5,0l0.7-0.7c0.3-0.3,1-0.3,1.3,0S12.2,16.5,11.9,16.8z M17.6,11.1l-2.2,2.2
    c-1.8,1.8-4.6,1.8-6.4,0l0,0c-0.3-0.3-0.3-1,0-1.3s1-0.3,1.3,0l0,0c1,1,2.6,1,3.7,0l2.2-2.2c1-1.1,0.9-2.8-0.2-3.7
    c-1-0.9-2.5-0.9-3.5,0l-0.7,0.8c-0.3,0.3-1,0.3-1.3,0c-0.3-0.3-0.3-1,0-1.3l0,0l0.7-0.8C13,3,15.8,3,17.6,4.7S19.4,9.4,17.6,11.1
    L17.6,11.1z"/>
</symbol>

<symbol id="chevron" viewBox="0 0 16 18">
  <path fill="currentColor" d="M12,9a.994.994,0,0,1-.293.7l-3.991,3.99a1,1,0,1,1-1.436-1.386l.024-.024L9.59,9,6.3,5.715A1,1,0,0,1,7.691,4.28l.024.025,3.991,3.99A.994.994,0,0,1,12,9Z" />
</symbol>

<symbol id="expand" viewBox="0 0 17 17">
    <path fill="currentColor" d="M6.368,10.337a.444.444,0,0,0-.628,0L2.858,13.219,1.534,11.892a.306.306,0,0,0-.22-.092A.311.311,0,0,0,1,12.112v3.929a.222.222,0,0,0,.2.2H5.134a.311.311,0,0,0,.311-.311.3.3,0,0,0-.092-.218L4.026,14.388l2.882-2.882a.444.444,0,0,0,0-.628Z" />
    <path fill="currentColor" d="M16.041,1H12.112a.311.311,0,0,0-.311.311v0a.3.3,0,0,0,.092.218l1.326,1.326L10.337,5.739a.444.444,0,0,0,0,.628l.54.54a.444.444,0,0,0,.628,0l2.882-2.882,1.326,1.327a.306.306,0,0,0,.22.092.311.311,0,0,0,.311-.311h0V1.2a.222.222,0,0,0-.2-.2Z" />
</symbol>

<symbol id="close" viewBox="225.105 17.634 17.606 17.607">
  <path fill="currentColor" d="M18.436,3.419,12,9.855,5.564,3.419a.758.758,0,0,0-1.072,0L3.419,4.491a.758.758,0,0,0,0,1.072L9.855,12,3.419,18.436a.758.758,0,0,0,0,1.072l1.072,1.073a.758.758,0,0,0,1.072,0L12,14.145l6.436,6.436a.758.758,0,0,0,1.072,0l1.073-1.072a.758.758,0,0,0,0-1.072L14.145,12l6.436-6.436a.758.758,0,0,0,0-1.072L19.509,3.419a.758.758,0,0,0-1.073,0Z" transform="matrix(1, 0, 0, 1, 221.908051, 14.43703)"/>
</symbol>

</svg>