<svg id="Smock_Subscribe_18_N" xmlns="http://www.w3.org/2000/svg" width="20" height="20" viewBox="0 0 20 20">
  <rect id="Canvas" width="20" height="20" fill="#1473e6" opacity="0"/>
  <path id="Path_3" d="M12.389,11.414l6.188,4.635V6.771Z" transform="translate(1.273 0.696)" fill="#1473e6"/>
  <path id="Path_4" d="M12.608,11.7l-1.972,1.485a1.2,1.2,0,0,1-1.423,0l-2-1.5L0,17.032a.541.541,0,0,0,.551.514H19.3a.487.487,0,0,0,.551-.414v0Z" transform="translate(0 1.201)" fill="#1473e6"/>
  <path id="Path_5" d="M6.156,11.4,0,6.755v9.2Z" transform="translate(0 0.694)" fill="#1473e6"/>
  <path id="Path_6" d="M10.513.352a1.1,1.1,0,0,0-1.176,0L0,6.248V7.7H3.308V4.944a.551.551,0,0,1,.551-.551H15.99a.551.551,0,0,1,.551.551V7.7H19.85V6.231Z" transform="translate(0 0.019)" fill="#1473e6"/>
  <rect id="Rectangle_5" width="8" height="1" rx="0.25" transform="translate(6 7)" fill="#1473e6"/>
  <path id="Path_7" d="M11.426,10.1H7.2a.276.276,0,0,1-.165-.055L6,9.249A.138.138,0,0,1,6.08,9h6.468a.138.138,0,0,1,.084.247l-1.038.8A.276.276,0,0,1,11.426,10.1Z" transform="translate(0.611 0.925)" fill="#1473e6"/>
</svg>
