<svg version="1.1" id="Layer_1" xmlns="http://www.w3.org/2000/svg" xmlns:xlink="http://www.w3.org/1999/xlink" x="0px" y="0px" viewBox="0 0 28 28" style="enable-background:new 0 0 28 28;" xml:space="preserve">
    <path d="M3.1,12.1V3.1h21.8v20.2H14.4c-0.2,0-0.4,0.2-0.4,0.4v0.8c0,0.2,0.2,0.4,0.4,0.4h11.3c0.4,0,0.8-0.3,0.8-0.8V2.3c0-0.4-0.3-0.8-0.8-0.8H2.3c-0.4,0-0.8,0.3-0.8,0.8v9.7c0,0.2,0.2,0.4,0.4,0.4h0.8C2.9,12.4,3.1,12.3,3.1,12.1z"></path>
    <path d="M4.3,14.7l2.6,2.6l-5.9,5.9c-0.2,0.2-0.2,0.4,0,0.5c0,0,0,0,0,0l1.6,1.7c0.2,0.2,0.4,0.2,0.5,0l5.9-5.9l2.6,2.6c0.1,0.2,0.4,0.2,0.5,0c0.1-0.1,0.1-0.2,0.1-0.3V14H4.6c-0.2,0-0.4,0.2-0.4,0.4C4.2,14.5,4.2,14.6,4.3,14.7L4.3,14.7z"></path>
</svg>
